<?xml version="1.0" standalone="no"?>
<!DOCTYPE svg PUBLIC "-//W3C//DTD SVG 20010904//EN"
 "http://www.w3.org/TR/2001/REC-SVG-20010904/DTD/svg10.dtd">
<svg version="1.0" xmlns="http://www.w3.org/2000/svg"
 width="1024.000000pt" height="1024.000000pt" viewBox="0 0 1024.000000 1024.000000"
 preserveAspectRatio="xMidYMid meet">

<g transform="translate(0.000000,1024.000000) scale(0.100000,-0.100000)"
fill="#000000" stroke="none">
<path d="M0 5120 l0 -5120 5120 0 5120 0 0 5120 0 5120 -5120 0 -5120 0 0
-5120z m5440 4480 c392 -29 773 -108 1135 -235 1058 -370 1950 -1157 2454
-2164 358 -713 523 -1546 471 -2371 -15 -227 -34 -372 -81 -603 -160 -795
-512 -1511 -1038 -2109 -129 -147 -350 -363 -481 -473 -52 -43 -99 -82 -104
-86 -5 -4 43 -59 106 -121 126 -124 291 -325 283 -346 -3 -7 -1 -11 4 -8 5 3
11 -1 14 -9 4 -9 1 -12 -7 -9 -8 3 -17 0 -22 -7 -4 -7 -3 -10 2 -6 5 3 10 -3
10 -14 0 -10 -3 -15 -7 -11 -3 4 -41 53 -84 110 -108 143 -246 285 -382 395
-91 73 -111 93 -94 95 11 2 21 8 21 13 0 5 8 4 19 -2 16 -10 31 -2 112 63 700
557 1242 1403 1473 2299 134 522 174 1043 121 1589 -77 796 -360 1542 -819
2165 -84 113 -96 135 -96 170 0 73 -46 128 -52 62 l-3 -34 -98 108 c-54 59
-110 130 -124 159 -24 49 -87 109 -100 96 -4 -3 -1 -12 5 -18 7 -7 12 -16 12
-20 0 -5 -42 34 -93 85 -51 51 -118 109 -150 127 -40 25 -57 41 -57 56 0 35
-59 141 -96 173 -51 46 -103 69 -223 100 -85 23 -128 41 -207 88 -387 234
-888 420 -1364 507 -287 52 -399 61 -790 61 -325 0 -384 -3 -535 -23 -806
-109 -1491 -402 -2129 -911 -153 -123 -408 -369 -544 -526 -407 -470 -716
-1049 -882 -1651 -301 -1095 -194 -2239 305 -3234 88 -175 147 -277 270 -465
134 -203 398 -535 426 -535 6 0 37 18 69 40 34 23 61 36 65 30 4 -6 11 -7 17
-4 7 4 6 9 -2 14 -7 5 -3 12 14 23 143 94 196 125 194 115 -2 -7 3 -12 10 -10
6 1 12 -3 12 -9 0 -5 5 -7 10 -4 6 3 10 4 10 2 0 -3 -62 -45 -137 -93 -150
-96 -223 -148 -322 -227 -35 -29 -68 -51 -73 -49 -5 1 -7 -2 -4 -7 8 -12 -54
-57 -74 -53 -11 2 -12 1 -2 -6 19 -13 -37 -62 -62 -53 -17 7 -18 8 -3 14 19 7
23 27 6 27 -5 0 -8 -4 -5 -9 3 -5 -4 -11 -17 -14 -24 -7 7 25 132 134 l64 56
-84 97 c-523 610 -864 1307 -1018 2086 -47 236 -68 392 -81 610 -57 956 166
1886 640 2671 276 455 659 880 1087 1207 689 524 1485 823 2363 885 110 8 487
6 610 -3z m-206 -1985 c80 -47 195 -51 274 -11 20 10 30 9 62 -6 28 -14 60
-19 124 -19 82 -1 87 -2 118 -31 18 -17 60 -44 93 -59 114 -54 227 -37 373 58
59 39 67 41 166 48 l104 7 34 -34 c34 -34 93 -58 141 -58 14 0 51 -14 83 -31
55 -29 65 -31 134 -26 53 3 97 14 148 35 l73 30 59 -30 c167 -83 330 -378 432
-783 28 -111 30 -139 38 -385 5 -146 14 -303 19 -350 6 -47 11 -159 11 -250 0
-225 -27 -908 -40 -1006 -20 -150 -33 -219 -45 -239 -7 -11 -24 -51 -39 -90
-14 -38 -46 -103 -70 -143 -27 -45 -51 -101 -61 -145 -22 -91 -35 -106 -35
-40 0 58 -20 123 -27 88 -2 -11 -11 -44 -19 -74 l-16 -55 -21 45 c-18 40 -21
41 -24 19 -9 -75 -38 -199 -51 -225 -9 -16 -18 -63 -21 -104 l-6 -74 -33 67
c-18 36 -34 66 -36 66 -2 0 0 -17 5 -37 12 -54 12 -206 -1 -198 -5 3 -10 23
-11 43 l-1 37 -7 -30 c-5 -16 -17 -75 -27 -130 l-19 -100 -17 140 c-9 77 -25
206 -36 287 l-19 147 -55 63 c-119 134 -255 264 -316 301 -75 44 -95 47 -61
10 13 -15 3 -9 -23 14 -25 23 -65 47 -87 53 -51 14 -53 23 -3 15 l37 -5 -39
19 c-36 18 -38 19 -18 30 30 16 46 14 67 -9 32 -35 67 -26 124 35 65 68 91
124 90 190 l-1 50 -8 -50 c-4 -28 -15 -65 -23 -82 l-17 -31 -31 29 c-17 16
-40 29 -50 29 -17 0 -18 5 -12 42 l6 43 -24 -18 c-98 -71 -97 -71 -181 -73
-45 -2 -90 2 -102 8 -12 6 -51 38 -88 70 -43 38 -77 60 -95 61 -24 2 -29 -3
-42 -40 -14 -40 -18 -43 -77 -59 -82 -22 -125 -13 -172 34 -67 67 -72 130 -19
220 27 46 12 40 -18 -8 -63 -99 -102 -298 -71 -358 23 -44 98 -98 156 -113 28
-7 50 -15 50 -19 0 -3 -35 -18 -77 -34 -64 -23 -88 -39 -136 -87 -42 -43 -53
-51 -42 -29 8 16 19 32 25 35 5 3 10 10 10 15 0 11 -93 -31 -118 -52 -9 -8
-57 -37 -107 -63 -111 -59 -209 -137 -240 -190 -13 -22 -36 -89 -51 -150 -25
-101 -34 -119 -102 -220 -41 -60 -85 -121 -99 -135 l-24 -25 24 65 c24 63 24
72 19 265 l-5 201 -49 -25 c-26 -13 -51 -22 -53 -19 -3 3 9 35 26 72 17 37 30
69 27 71 -2 2 -19 -17 -38 -42 -52 -69 -60 -67 -53 15 3 38 2 91 -2 118 l-8
49 -15 -65 -14 -64 -24 29 c-13 17 -39 61 -58 99 l-35 69 -3 -44 -3 -44 -47
85 -48 85 4 -52 c2 -29 -1 -50 -5 -47 -5 3 -9 -3 -10 -13 0 -16 -1 -16 -9 2
-12 29 -12 37 3 29 6 -4 3 2 -9 13 -11 11 -36 52 -55 92 -19 39 -40 71 -46 71
-8 0 -13 13 -13 31 0 21 4 28 13 23 6 -4 4 2 -6 13 -9 11 -14 23 -11 26 4 4 1
13 -5 21 -7 8 -10 19 -7 24 3 5 -3 17 -13 26 -13 12 -18 26 -14 47 3 18 -1 31
-9 34 -7 3 -14 16 -14 30 -1 14 2 22 7 19 5 -3 9 0 9 6 0 6 -7 13 -15 16 -9 4
-14 17 -13 33 1 14 -2 37 -6 50 -6 16 -5 21 3 17 20 -13 12 30 -11 60 -13 15
-17 25 -10 20 6 -4 12 -3 12 3 0 5 -6 11 -12 14 -10 3 -10 7 1 20 11 14 11 18
-3 23 -12 5 -14 10 -6 19 5 6 7 14 4 18 -3 3 -7 16 -9 29 -1 12 -4 28 -5 33
-5 22 0 36 13 29 9 -6 9 -5 0 7 -10 13 -15 79 -11 144 1 11 -9 65 -21 120 -20
92 -35 293 -24 322 3 7 10 10 16 6 6 -4 7 -1 2 6 -4 7 -1 25 6 39 20 40 90
104 106 98 8 -4 11 -1 8 5 -11 17 71 4 90 -15 9 -9 20 -14 24 -11 5 2 7 -7 5
-21 -1 -14 0 -24 2 -21 3 2 17 -7 33 -22 54 -52 92 -76 75 -49 -4 7 -3 8 5 4
6 -4 9 -11 6 -16 -3 -5 7 -13 22 -16 15 -4 41 -20 58 -36 16 -15 36 -28 43
-28 6 0 12 -5 12 -11 0 -7 9 -9 24 -5 21 5 28 -1 50 -39 15 -25 31 -45 35 -45
10 0 37 -61 33 -74 -2 -5 6 -6 16 -4 15 4 19 1 16 -16 -2 -11 -2 -16 2 -9 7
14 29 7 69 -22 45 -33 74 -46 127 -61 43 -11 48 -10 49 4 0 10 2 27 5 40 2 12
-1 22 -6 22 -6 0 -10 7 -10 15 0 8 -4 15 -8 15 -5 0 -17 7 -28 15 -16 13 -16
14 -1 9 34 -12 16 13 -22 31 -38 17 -135 105 -116 105 6 0 28 -11 50 -25 41
-25 71 -33 60 -15 -8 13 1 13 28 -1 17 -9 19 -9 11 0 -6 7 -9 23 -6 37 5 25 5
25 26 -12 31 -56 99 -83 164 -66 58 15 98 56 113 116 l11 44 45 -14 c25 -8 49
-12 53 -9 4 2 16 -3 26 -11 10 -9 13 -12 5 -8 -10 5 -12 3 -7 -5 5 -7 14 -10
22 -7 7 3 16 0 20 -6 5 -7 2 -8 -7 -4 -16 8 16 -18 46 -38 20 -13 20 -14 1
-34 -10 -12 -28 -23 -40 -25 -11 -2 7 -5 42 -6 34 0 62 3 62 7 0 5 -13 7 -30
4 -35 -5 -40 12 -10 28 16 9 27 7 50 -10 39 -27 38 -10 0 33 -16 19 -30 40
-30 46 0 12 -73 61 -90 61 -6 0 -16 5 -23 10 -7 6 -21 18 -32 26 -19 15 -19
15 5 8 42 -11 136 -72 169 -110 19 -21 31 -29 31 -19 0 28 -69 92 -139 129
-98 51 -173 67 -343 72 -81 2 -151 5 -155 6 -4 1 -29 -1 -55 -6 -37 -6 -53 -3
-75 11 -32 21 -57 43 -48 43 4 0 -1 7 -10 16 -14 15 -14 19 4 47 12 19 35 37
57 44 39 14 57 31 48 45 -9 14 140 9 227 -8 46 -8 116 -30 154 -48 39 -18 91
-41 117 -51 26 -9 57 -27 69 -39 13 -11 34 -28 47 -36 14 -8 43 -42 66 -75 34
-48 50 -61 79 -68 20 -5 37 -13 37 -18 0 -5 11 -9 24 -9 13 0 26 -4 28 -9 2
-4 12 -11 24 -15 20 -6 21 -2 27 91 7 103 -3 209 -23 240 -11 17 -11 17 -6 -2
5 -17 3 -16 -14 5 -11 14 -20 28 -20 33 0 4 -4 7 -9 7 -6 0 1 -19 14 -42 14
-24 25 -47 25 -53 0 -5 -10 8 -23 30 -26 46 -112 109 -139 102 -10 -3 -16 -2
-13 2 11 18 -389 126 -521 141 -110 12 -172 -1 -280 -59 -74 -40 -199 -126
-247 -170 -20 -19 -26 -21 -22 -8 4 9 11 17 15 17 4 0 7 10 6 23 -1 12 -7 21
-14 20 -7 -2 -12 8 -12 22 0 14 -7 41 -15 61 -8 19 -10 32 -5 29 6 -4 7 7 4
27 -4 25 -3 29 5 18 15 -21 20 63 7 123 -5 20 -3 27 9 27 22 0 19 18 -5 25
-15 5 -17 11 -10 29 6 16 0 62 -20 147 -15 69 -33 157 -40 197 -7 40 -17 69
-23 65 -5 -3 -7 4 -3 18 3 13 3 18 0 12 -8 -18 -24 -16 -24 2 0 21 -18 19 -22
-2 -7 -35 -31 246 -26 304 18 189 205 357 423 377 159 15 185 18 180 26 -3 5
2 16 11 24 8 9 11 16 5 16 -16 0 -61 -22 -61 -31 0 -4 -9 -5 -21 -2 -16 5 -10
10 33 28 29 13 54 23 56 24 2 0 23 -10 46 -24z m-344 -5 c8 -5 11 -10 5 -10
-5 0 -17 5 -25 10 -8 5 -10 10 -5 10 6 0 17 -5 25 -10z m153 -27 c-13 -2 -35
-2 -50 0 -16 2 -5 4 22 4 28 0 40 -2 28 -4z m397 -1813 c0 -21 -24 -27 -49
-11 -19 12 -4 31 25 31 17 0 24 -5 24 -20z m2450 -395 c25 -145 31 -207 27
-274 -5 -107 -56 -394 -96 -543 -27 -102 -30 -123 -25 -213 5 -91 4 -104 -18
-145 -23 -45 -59 -73 -112 -86 -24 -6 -27 -4 -23 12 9 27 67 406 77 494 5 41
11 178 15 305 10 331 16 379 66 536 28 86 46 130 50 119 4 -9 21 -101 39 -205z
m-4523 193 c-3 -8 -6 -5 -6 6 -1 11 2 17 5 13 3 -3 4 -12 1 -19z m4630 -160
c-3 -8 -6 -5 -6 6 -1 11 2 17 5 13 3 -3 4 -12 1 -19z m-1 -58 c8 0 14 -10 14
-25 0 -14 -5 -25 -11 -25 -6 0 -9 -7 -5 -15 3 -8 1 -15 -5 -15 -6 0 -8 -8 -5
-17 3 -10 1 -25 -5 -33 -8 -11 -9 -4 -6 28 3 24 1 40 -4 36 -5 -3 -9 6 -9 19
0 14 -3 40 -6 58 -6 34 -6 34 10 12 10 -13 24 -23 32 -23z m-4338 -22 c17 -14
15 -39 -8 -100 -13 -36 -19 -76 -19 -125 1 -83 4 -87 116 -152 72 -41 90 -64
78 -101 -5 -17 -14 -20 -45 -18 -21 1 -37 5 -35 8 6 9 -50 62 -57 54 -12 -11
-106 67 -123 102 -34 72 -32 108 18 282 18 65 22 72 41 66 12 -4 27 -11 34
-16z m4369 -130 c-3 -8 -6 -5 -6 6 -1 11 2 17 5 13 3 -3 4 -12 1 -19z m-90
-410 c-3 -8 -6 -5 -6 6 -1 11 2 17 5 13 3 -3 4 -12 1 -19z m-4237 -118 c0 -5
-7 -7 -15 -4 -8 4 -15 8 -15 10 0 2 7 4 15 4 8 0 15 -4 15 -10z m4167 -372
c-2 -18 -4 -4 -4 32 0 36 2 50 4 33 2 -18 2 -48 0 -65z m-1572 -65 c9 -50 44
-83 78 -76 17 3 26 10 23 18 -4 11 1 10 22 0 15 -8 34 -16 42 -19 8 -3 26 -14
39 -23 l24 -18 -13 25 c-10 18 2 11 40 -23 55 -50 69 -54 50 -15 -6 12 16 -6
49 -42 60 -65 70 -67 51 -13 -8 24 -8 25 3 9 6 -10 27 -41 45 -68 33 -51 37
-64 26 -93 -5 -13 -24 1 -89 64 -83 81 -164 131 -215 131 -35 0 -100 -19 -100
-30 0 -4 -22 -11 -49 -15 -39 -5 -59 -2 -109 19 -107 45 -133 47 -230 19 -113
-32 -210 -79 -324 -156 -51 -34 -113 -75 -138 -90 l-45 -28 75 6 c64 5 81 3
115 -14 47 -25 55 -26 55 -5 0 14 2 15 17 3 13 -11 15 -11 9 -1 -5 9 -3 13 5
12 21 -3 59 11 59 21 0 5 -6 9 -12 10 -30 1 36 18 131 34 81 14 145 16 318 13
l218 -5 140 -46 c77 -25 161 -51 187 -57 26 -7 45 -16 43 -20 -3 -5 11 -25 31
-45 42 -44 58 -35 50 30 l-5 40 18 -40 c10 -22 23 -56 29 -75 6 -19 25 -76 41
-125 37 -109 38 -125 6 -88 l-24 28 -1 -90 c-1 -49 -5 -82 -9 -72 -6 17 -8 17
-20 3 -10 -11 -11 -32 -6 -78 5 -35 9 -73 11 -85 2 -22 1 -21 -26 6 -16 16
-38 31 -49 34 -29 7 -44 -46 -39 -139 3 -65 2 -71 -10 -49 -7 13 -13 45 -14
70 -2 39 -4 44 -14 30 -7 -9 -18 -40 -25 -68 l-12 -52 -13 35 -12 35 -12 -32
c-11 -30 -30 -45 -30 -25 0 4 -31 36 -70 70 -67 61 -69 61 -55 28 10 -23 12
-43 6 -58 -7 -21 -9 -19 -21 17 -7 22 -15 34 -17 27 -6 -17 -23 -5 -23 16 0 9
-23 46 -50 81 l-50 63 0 -43 c-1 -67 -21 -23 -29 62 l-6 68 -39 -87 c-22 -48
-43 -91 -46 -95 -4 -4 -13 20 -19 55 -7 35 -15 70 -18 78 -2 8 -26 -40 -51
-107 -25 -67 -49 -120 -52 -118 -4 2 -12 40 -20 85 -8 50 -17 76 -22 68 -10
-16 -34 -100 -43 -153 l-7 -40 -14 40 c-24 67 -20 128 13 195 23 47 26 56 10
43 -27 -25 -164 -193 -207 -254 l-35 -50 -3 50 -3 51 -32 -24 c-18 -14 -45
-47 -62 -75 -16 -28 -33 -51 -36 -51 -8 0 -19 80 -19 137 l0 45 -72 -66 c-76
-70 -107 -87 -64 -35 20 23 26 41 26 77 0 60 -15 87 -24 45 -4 -17 -18 -41
-32 -53 l-24 -23 0 28 c0 24 -18 103 -27 114 -1 2 -13 -9 -25 -25 l-23 -29 -6
60 c-11 102 -22 175 -25 175 -2 0 -19 -17 -38 -37 l-33 -37 12 60 c7 32 16 72
20 88 7 26 6 28 -11 22 -27 -11 -166 -37 -171 -32 -2 2 8 6 22 10 16 4 25 13
25 26 0 10 5 22 10 25 6 3 10 19 10 34 0 35 148 274 210 340 25 26 37 38 28
26 -10 -12 -18 -27 -18 -34 0 -8 39 22 87 65 69 62 81 70 55 37 -24 -31 -29
-43 -18 -43 8 0 17 4 20 9 4 5 39 25 79 45 39 19 105 60 145 91 72 55 86 60
56 17 -23 -34 -11 -37 25 -7 17 15 35 24 40 20 15 -9 62 6 54 18 -3 5 -2 7 4
4 17 -10 54 24 74 67 l19 41 0 -50 1 -50 24 28 c23 26 25 26 25 8 0 -26 10
-26 44 0 26 20 37 14 14 -9 -6 -6 -8 -15 -4 -19 14 -14 41 14 56 59 17 53 36
58 45 11z m-2618 -110 c-2 -27 -3 -5 -3 47 0 52 1 74 3 48 2 -27 2 -69 0 -95z
m2275 15 c-7 -7 -12 -8 -12 -2 0 14 12 26 19 19 2 -3 -1 -11 -7 -17z m-2325
-75 c-3 -10 -5 -4 -5 12 0 17 2 24 5 18 2 -7 2 -21 0 -30z m2073 -16 c0 -2
-10 -12 -22 -23 l-23 -19 19 23 c18 21 26 27 26 19z m1954 -68 c-2 -4 1 -9 7
-11 8 -3 9 -18 4 -46 -4 -23 -10 -40 -14 -37 -5 2 -6 -8 -3 -23 3 -15 1 -24
-3 -20 -14 13 -43 -12 -50 -43 -4 -17 -9 -29 -11 -26 -2 2 6 51 18 110 18 86
25 105 39 104 10 -1 16 -4 13 -8z m-3987 -51 c-3 -7 -5 -2 -5 12 0 14 2 19 5
13 2 -7 2 -19 0 -25z m3208 -49 c9 -17 15 -33 13 -35 -3 -2 -12 12 -21 31 -21
43 -13 47 8 4z m712 -144 c0 -8 -4 -15 -9 -15 -4 0 -8 7 -8 15 0 8 4 15 8 15
5 0 9 -7 9 -15z m-3986 -37 c0 -13 3 -17 6 -10 2 6 9 12 14 12 6 0 7 -5 3 -12
-5 -8 -2 -9 9 -5 11 4 17 1 17 -8 0 -12 -15 -15 -71 -15 -45 0 -68 4 -64 10 4
6 10 8 14 6 4 -3 8 1 8 9 0 8 -10 16 -21 16 -12 1 -3 5 19 9 64 11 65 11 66
-12z m3981 -45 c6 -7 6 -13 2 -13 -5 0 -17 -12 -27 -27 -18 -28 -18 -28 -13
-3 3 14 9 43 13 65 6 32 8 35 11 15 2 -14 9 -31 14 -37z m-4159 0 c-7 -2 -19
-2 -25 0 -7 3 -2 5 12 5 14 0 19 -2 13 -5z m4167 -60 c0 -10 -6 -40 -13 -68
-10 -38 -15 -45 -20 -31 -5 12 -3 23 5 28 9 5 8 8 -6 8 -15 0 -16 3 -6 15 7 9
10 18 7 22 -8 8 11 43 23 43 6 0 10 -8 10 -17z m-61 -91 c-5 -2 -9 -11 -9 -19
0 -9 -2 -14 -5 -11 -3 3 -2 20 2 38 5 28 8 31 13 15 4 -11 3 -21 -1 -23z m20
-81 c-7 -22 -16 -41 -21 -41 -5 0 -7 4 -3 9 3 5 -4 12 -15 16 -11 3 -20 11
-20 16 0 6 9 5 21 -2 20 -10 21 -9 15 17 -5 21 -4 25 4 14 9 -13 10 -13 11 0
1 8 1 20 -1 25 -1 6 4 5 10 -1 9 -9 8 -22 -1 -53z m-27 -68 c-6 -3 -10 -9 -7
-13 3 -5 -1 -24 -9 -42 -9 -20 -15 -26 -15 -15 -1 9 -5 17 -10 17 -5 0 -18 -8
-27 -17 -17 -17 -18 -17 -10 2 5 11 11 28 13 37 5 16 7 15 24 -5 14 -17 19
-18 20 -7 1 8 3 20 3 25 3 18 18 36 25 29 3 -4 0 -9 -7 -11z m-48 -121 c3 -5
-1 -9 -9 -9 -8 0 -12 4 -9 9 3 4 7 8 9 8 2 0 6 -4 9 -8z m-4453 -63 c-5 -13
-10 -19 -10 -12 -1 15 10 45 15 40 3 -2 0 -15 -5 -28z m-22 -68 c-6 -18 -13
-30 -15 -28 -2 2 1 18 7 36 6 18 13 30 15 28 2 -2 -1 -18 -7 -36z m-86 -180
c4 -1 1 -14 -8 -31 -19 -37 -19 -115 0 -170 15 -41 14 -43 -2 -28 -33 28 -41
29 -37 6 3 -14 -2 -9 -12 12 -21 43 -24 143 -5 187 10 25 18 32 35 29 11 -3
24 -5 29 -5z m7 -257 c0 -2 -21 -17 -47 -34 -38 -25 -42 -26 -18 -6 17 14 34
26 38 26 5 0 6 4 3 8 -3 5 1 9 9 9 8 0 15 -2 15 -3z m-154 -79 c5 -12 10 -12
27 -4 39 20 4 -7 -90 -70 -53 -35 -95 -56 -98 -51 -4 6 -10 8 -15 5 -4 -3 -7
3 -6 13 1 18 140 122 163 122 8 0 16 -7 19 -15z m4229 -126 c4 -6 13 -8 21 -5
8 3 1 -14 -15 -38 l-30 -43 169 -144 c93 -78 166 -147 163 -152 -3 -6 -1 -7 5
-3 6 3 13 2 17 -4 3 -5 0 -10 -7 -10 -9 0 -9 -3 2 -10 13 -8 12 -10 -4 -10
-19 0 -19 0 0 -22 l19 -23 -22 19 c-13 10 -20 22 -18 26 3 4 -1 7 -8 6 -6 0
-98 71 -203 158 l-192 160 40 53 c41 54 52 61 63 42z m370 -419 c3 -6 -1 -7
-9 -4 -18 7 -21 14 -7 14 6 0 13 -4 16 -10z m-778 -87 c-30 -59 -70 -180 -97
-293 -23 -95 -39 -290 -24 -290 20 0 34 25 35 59 0 30 3 26 14 -24 18 -82 76
-245 131 -368 25 -56 52 -129 59 -162 25 -105 55 -95 -275 -95 l-290 0 -45 35
c-25 18 -72 44 -105 56 -55 20 -79 40 -302 263 -239 239 -334 318 -450 377
-32 16 -58 32 -58 34 0 3 8 1 18 -4 13 -7 22 -7 30 1 6 6 21 12 34 12 13 1 29
5 36 9 16 11 34 -1 25 -16 -5 -9 -3 -9 8 -1 8 6 26 14 42 18 20 5 27 3 27 -9
0 -8 5 -15 10 -15 6 0 10 5 10 11 0 7 12 9 35 5 21 -4 35 -3 35 3 0 5 15 8 33
6 17 -2 26 -1 20 2 -18 7 -16 20 2 20 8 0 15 -3 15 -7 0 -4 8 -6 18 -5 34 5
62 18 62 29 0 6 4 5 9 -3 7 -12 12 -11 30 1 11 8 19 17 16 19 -2 3 11 3 30 1
19 -2 32 -8 29 -13 -3 -5 5 -5 18 1 13 5 63 16 111 25 106 19 210 55 295 101
34 19 62 31 62 27 0 -4 6 -1 13 8 7 9 26 19 44 23 17 4 34 14 37 23 6 14 4 14
-11 2 -14 -11 -14 -9 2 9 18 22 20 23 33 5 13 -16 14 -16 9 0 -5 12 -1 17 13
17 11 0 20 5 20 11 0 6 9 8 23 3 33 -11 81 -5 93 11 6 8 13 12 17 9 3 -3 17
17 31 45 14 28 23 51 19 51 -3 0 0 7 7 15 23 28 22 8 -3 -42z m963 -118 c0 -5
-5 -3 -10 5 -5 8 -10 20 -10 25 0 6 5 3 10 -5 5 -8 10 -19 10 -25z m-33 -11
c-3 -4 0 -19 8 -35 8 -15 15 -37 15 -49 0 -12 4 -19 9 -16 5 3 11 -3 14 -14 3
-11 1 -23 -5 -26 -12 -8 -12 -9 -30 56 -8 30 -19 63 -23 73 -5 11 -3 17 6 17
7 0 10 -3 6 -6z m-5797 -27 c0 -2 -12 -14 -27 -28 l-28 -24 24 28 c23 25 31
32 31 24z m5857 -59 c-3 -8 -6 -5 -6 6 -1 11 2 17 5 13 3 -3 4 -12 1 -19z
m-5973 -4 c3 -8 2 -13 -3 -10 -5 3 -11 -3 -14 -14 -3 -13 -1 -18 6 -13 28 15
46 36 40 46 -4 6 -1 7 6 2 17 -10 -48 -78 -67 -70 -7 2 -11 1 -8 -4 3 -4 -9
-21 -26 -37 -18 -16 -26 -21 -19 -11 8 10 9 17 3 17 -6 0 0 12 13 26 14 15 25
31 25 35 0 7 31 49 36 49 1 0 5 -7 8 -16z m-54 -27 c0 -2 -15 -16 -32 -33
l-33 -29 29 33 c28 30 36 37 36 29z m1380 -63 c0 -8 -4 -14 -8 -14 -4 0 -8 9
-8 19 0 11 4 17 8 15 4 -3 8 -12 8 -20z m44 -20 c17 -7 22 -44 6 -44 -9 0 -30
31 -30 44 0 8 5 7 24 0z m-1484 -27 c0 -2 -11 -14 -24 -26 -18 -17 -26 -19
-31 -10 -5 7 -4 10 2 6 6 -4 18 2 28 13 17 19 25 24 25 17z m-70 -50 c0 -6 -6
-2 -14 9 -14 18 -15 18 -21 2 -4 -10 -12 -18 -18 -18 -5 0 -2 9 8 20 14 15 21
17 32 9 7 -6 13 -16 13 -22z m1628 21 c7 -7 12 -18 12 -25 0 -11 -5 -11 -20
-3 -11 6 -20 17 -20 25 0 18 12 19 28 3z m-1638 -43 c0 -2 -6 -8 -13 -14 -10
-8 -14 -7 -14 2 0 8 6 14 14 14 7 0 13 -1 13 -2z m1709 -21 c3 -16 1 -17 -13
-5 -19 16 -21 34 -3 29 6 -3 14 -13 16 -24z m-1759 -17 c0 -2 -12 -14 -27 -28
l-28 -24 24 28 c23 25 31 32 31 24z m1816 -22 c1 -8 -2 -15 -7 -15 -5 0 -9 10
-9 22 0 23 12 17 16 -7z m63 -51 c3 -16 1 -17 -13 -5 -19 16 -21 34 -3 29 6
-3 14 -13 16 -24z m-1959 3 c0 -2 -10 -12 -22 -23 l-23 -19 19 23 c18 21 26
27 26 19z m-91 -24 c-8 -9 -30 -32 -49 -51 l-35 -35 38 27 c21 16 37 22 37 15
0 -7 11 -2 25 11 14 13 25 21 25 18 0 -3 -35 -36 -77 -74 -43 -37 -72 -62 -65
-54 17 19 15 28 -8 35 -17 5 -10 14 48 65 69 62 84 72 61 43z m2109 -17 c3
-12 -1 -17 -10 -14 -7 3 -15 13 -16 22 -3 12 1 17 10 14 7 -3 15 -13 16 -22z
m69 -51 c3 -9 3 -19 -1 -22 -8 -9 -37 18 -30 28 8 14 24 11 31 -6z m53 -55 c9
-16 8 -18 -5 -14 -8 4 -15 12 -15 20 0 20 7 17 20 -6z m68 -54 c3 -12 -1 -17
-10 -14 -7 3 -15 13 -16 22 -3 12 1 17 10 14 7 -3 15 -13 16 -22z m-2428 10
c0 -2 -8 -10 -17 -17 -16 -13 -17 -12 -4 4 13 16 21 21 21 13z m2486 -58 c3
-11 3 -22 0 -25 -9 -10 -36 18 -36 38 0 24 27 14 36 -13z m-1227 -57 c-3 -6
-10 -7 -18 -2 -7 5 -10 14 -6 21 9 14 29 -2 24 -19z m1279 12 c5 -10 7 -24 5
-31 -7 -18 -33 5 -33 29 0 24 16 25 28 2z m-2658 -3 c0 -5 -5 -10 -11 -10 -5
0 -7 5 -4 10 3 6 8 10 11 10 2 0 4 -4 4 -10z m1447 -46 c-2 -2 -12 -1 -22 3
-18 6 -18 7 1 13 17 7 33 -5 21 -16z m1283 -38 c0 -20 -12 -27 -27 -15 -7 6
-13 26 -13 43 l1 31 19 -24 c11 -13 20 -29 20 -35z m-1220 29 c7 -9 10 -18 7
-21 -10 -11 -37 5 -37 21 0 19 14 19 30 0z m68 -48 c2 -12 -1 -15 -12 -11 -19
7 -22 38 -3 32 6 -3 13 -12 15 -21z m1202 -38 c0 -12 -5 -16 -15 -13 -8 4 -15
17 -15 31 0 22 2 24 15 13 8 -7 15 -21 15 -31z m-1130 -5 c0 -17 -16 -19 -26
-2 -5 7 -3 8 6 3 10 -6 12 -4 7 9 -4 10 -3 15 3 11 6 -3 10 -13 10 -21z m58
-37 c2 -12 -1 -15 -12 -11 -19 7 -22 38 -3 32 6 -3 13 -12 15 -21z m1132 -18
c0 -11 -4 -19 -10 -19 -13 0 -32 38 -25 51 10 14 35 -9 35 -32z m-1085 -19
c-3 -4 0 -11 5 -13 6 -3 5 -4 -1 -3 -7 1 -13 10 -15 19 -1 9 2 15 7 11 5 -3 7
-9 4 -14z m1139 -26 c3 -9 6 -23 6 -31 0 -14 -3 -14 -20 2 -11 10 -20 24 -20
32 0 18 27 16 34 -3z m-1064 -26 c0 -12 -3 -18 -7 -14 -11 10 -12 36 -2 36 5
0 9 -10 9 -22z m78 -64 c-10 -10 -28 6 -28 24 0 15 1 15 17 -1 9 -9 14 -19 11
-23z m1040 12 c3 -12 -1 -17 -10 -14 -7 3 -15 13 -16 22 -3 12 1 17 10 14 7
-3 15 -13 16 -22z"/>
<path d="M2189 2228 c-6 -20 -3 -45 6 -42 12 5 15 44 3 44 -4 0 -8 -1 -9 -2z"/>
<path d="M1845 1940 c-3 -5 1 -10 9 -10 9 0 16 5 16 10 0 6 -4 10 -9 10 -6 0
-13 -4 -16 -10z"/>
<path d="M4733 6354 c0 -7 6 -10 14 -7 7 3 13 8 13 12 0 4 -6 8 -13 8 -8 0
-14 -6 -14 -13z"/>
<path d="M7070 6083 c-80 -12 -328 -67 -345 -75 -11 -6 -36 -24 -55 -42 -25
-22 -29 -24 -15 -6 11 13 29 32 40 42 11 9 15 17 9 18 -6 0 -33 -19 -60 -42
-44 -39 -47 -40 -30 -13 17 26 17 28 2 16 -26 -21 -41 -58 -56 -131 -8 -36
-20 -80 -27 -99 -17 -40 -8 -51 44 -51 25 0 40 9 64 35 18 19 37 35 43 35 18
0 227 105 221 111 -8 9 127 30 153 25 12 -3 20 -1 17 3 -9 15 149 23 201 10
86 -21 201 -87 282 -163 17 -16 32 -26 32 -22 0 21 -68 132 -125 203 -67 84
-120 127 -176 143 -33 10 -167 12 -219 3z"/>
<path d="M7457 5799 c3 -11 12 -23 19 -26 8 -3 11 -9 8 -14 -3 -5 2 -9 10 -9
29 0 29 23 0 47 -36 28 -44 29 -37 2z"/>
<path d="M6850 5742 c-36 -10 -84 -29 -108 -41 -48 -25 -118 -84 -134 -114 -9
-17 -8 -19 8 -14 12 5 9 -2 -9 -17 l-29 -23 24 -6 c12 -4 34 -7 48 -6 l25 0
-25 10 c-24 10 -24 11 -6 25 11 8 28 14 37 14 10 0 22 6 26 14 7 12 64 46 77
46 2 0 10 -24 16 -54 16 -76 52 -108 128 -114 76 -5 113 13 141 71 12 24 21
53 21 64 0 21 0 21 44 -3 38 -21 45 -31 51 -65 7 -39 9 -41 37 -35 26 5 29 3
23 -14 -6 -20 9 -28 20 -10 10 15 23 12 28 -7 4 -16 5 -16 6 1 1 16 7 18 49
13 55 -6 67 -1 68 30 0 13 -2 21 -5 18 -2 -3 -19 23 -35 57 -57 114 -164 167
-356 174 -81 3 -120 0 -170 -14z m333 -33 c32 -11 71 -28 85 -37 l26 -17 -29
-6 c-19 -3 -53 3 -91 17 -138 51 -246 52 -389 5 -33 -11 -61 -18 -63 -16 -9 8
105 58 162 71 79 18 219 10 299 -17z m-193 -49 c13 -9 13 -11 0 -20 -18 -12
-21 -12 -39 -1 -15 10 -7 31 12 31 7 0 19 -5 27 -10z m-340 -60 c0 -5 -5 -10
-11 -10 -5 0 -7 5 -4 10 3 6 8 10 11 10 2 0 4 -4 4 -10z"/>
<path d="M4365 5311 c-3 -5 -1 -12 5 -16 5 -3 10 1 10 9 0 18 -6 21 -15 7z"/>
<path d="M6240 4711 c0 -5 7 -15 17 -22 15 -13 15 -12 4 9 -12 23 -21 28 -21
13z"/>
<path d="M5578 3939 c-10 -5 -18 -7 -18 -4 0 3 -9 1 -20 -5 -11 -6 -20 -16
-20 -22 0 -6 3 -8 7 -5 3 4 12 2 19 -4 18 -15 61 -1 79 27 15 23 14 24 -7 24
-13 0 -31 -5 -40 -11z"/>
<path d="M6129 3619 c-9 -6 -2 -7 21 -4 l35 5 -35 -13 c-40 -16 -40 -22 -4
-111 13 -33 24 -71 24 -85 0 -25 0 -25 30 9 28 32 30 33 25 10 -5 -20 -1 -17
22 15 l28 40 5 -40 5 -40 14 33 c20 48 33 51 25 5 l-6 -38 37 35 c42 40 63 82
61 124 -1 27 -5 30 -61 43 -73 17 -207 24 -226 12z"/>
<path d="M3558 3673 c7 -3 16 -2 19 1 4 3 -2 6 -13 5 -11 0 -14 -3 -6 -6z"/>
<path d="M7566 3585 c-3 -8 -1 -15 4 -15 6 0 10 7 10 15 0 8 -2 15 -4 15 -2 0
-6 -7 -10 -15z"/>
</g>
</svg>
